#!OML:ASF E:\motion texture\Top Level 1\Subject 1\Session 1\male.ASF
:FULLY-SPECIFIED
:DEGREES
658
root -38.0906 17.7895 2.93788 1363.91 -87.6944 -1360.36
lowerback 1.36655 -4.46075 -4.0735
upperback -2.82919 -6.04503 2.5667
thorax -2.99052 -2.89934 5.13433
lowerneck -21.3242 -0.757646 -3.55906
upperneck 17.0944 -0.808477 3.9176
head 8.89052 -0.187069 1.81433
rclavicle 5.1361e-014 9.54166e-015
rhumerus -55.8762 -3.5264 -65.6521
rradius 31.2004
rwrist 6.91921
rhand -11.8057 -9.64233
rfingers 7.12502
rthumb 14.2442 -39.1339
lclavicle 5.1361e-014 9.54166e-015
lhumerus 3.73071 -23.9197 85.1242
lradius 71.256
lwrist 3.03674
lhand -11.836 9.21648
lfingers 7.12502
lthumb 14.215 38.7101
rfemur -58.5047 -5.43051 18.8941
rtibia 62.3403
rfoot 1284.55 -184.021
rtoes 20.8686
lfemur 11.4905 -8.40803 -26.2578
ltibia 16.5053
lfoot 1427.82 -6.36802
ltoes -14.9987
659
root -38.2784 17.7626 2.90483 1370.34 -87.8482 -1366.57
lowerback 0.874479 -4.46621 -3.96304
upperback -2.93249 -6.03578 2.63605
thorax -2.82559 -2.90228 5.10505
lowerneck -21.2597 -0.82709 -3.60755
upperneck 17.178 -0.907222 3.97431
head 8.9127 -0.231615 1.82889
rclavicle 7.442e-015 6.36111e-015
rhumerus -55.4291 -3.67987 -66.2549
rradius 31.7087
rwrist 6.54551
rhand -11.8334 -9.84291
rfingers 7.12502
rthumb 14.2176 -39.3363
lclavicle 7.442e-015 6.36111e-015
lhumerus 2.31264 -24.4472 85.9016
lradius 70.3777
lwrist 3.05041
lhand -11.8393 9.46296
lfingers 7.12502
lthumb 14.2118 38.9568
rfemur -55.4839 -5.37061 19.0337
rtibia 59.8748
rfoot 1283.51 -183.877
rtoes 18.9604
lfemur 11.7095 -8.26574 -25.7374
ltibia 16.7988
lfoot 1428.09 -6.88338
ltoes -15.8579
660
root -38.4721 17.7343 2.86978 1378.23 -87.9634 -1374.25
lowerback 0.347879 -4.47313 -3.86738
upperback -3.04216 -6.02953 2.70945
thorax -2.64584 -2.90673 5.08562
lowerneck -21.1575 -0.901155 -3.66867
upperneck 17.2643 -1.00917 4.02619
head 8.92954 -0.279569 1.84331
rclavicle 4.81929e-014 5.56597e-015
rhumerus -54.9725 -3.84476 -66.8533
rradius 32.1994
rwrist 6.16347
rhand -11.8724 -10.0163
rfingers 7.12502
rthumb 14.1799 -39.5123
lclavicle 4.81929e-014 5.56597e-015
lhumerus 0.808413 -24.9846 86.7304
lradius 69.4083
lwrist 3.09058
lhand -11.8318 9.72463
lfingers 7.12502
lthumb 14.2191 39.2179
rfemur -52.3808 -5.29131 19.1937
rtibia 57.4215
rfoot 1281.55 -183.639
rtoes 16.5096
lfemur 11.8619 -8.1135 -25.1812
ltibia 17.2479
lfoot 1428.41 -7.4681
ltoes -16.7422
661
root -38.6709 17.7048 2.83334 1387.23 -88.0197 -1383.05
lowerback -0.203582 -4.48337 -3.78767
upperback -3.16382 -6.02914 2.78382
thorax -2.46247 -2.91373 5.07474
lowerneck -21.0474 -0.981535 -3.7186
upperneck 17.3877 -1.11766 4.04323
head 8.95784 -0.334074 1.84335
rclavicle 4.3509e-014 -1.11319e-014
rhumerus -54.506 -4.00576 -67.4605
rradius 32.6757
rwrist 5.76684
rhand -11.9155 -10.1939
rfingers 7.12502
rthumb 14.1384 -39.6928
lclavicle 4.3509e-014 -1.11319e-014
lhumerus -0.789646 -25.5201 87.6055
lradius 68.3495
lwrist 3.17256
lhand -11.8044 9.99432
lfingers 7.12502
lthumb 14.2455 39.4857
rfemur -49.2447 -5.1846 19.364
rtibia 54.976
rfoot 1278.64 -183.217
rtoes 13.8393
lfemur 11.9123 -7.95005 -24.5979
ltibia 17.8958
lfoot 1428.83 -8.12916
ltoes -17.6176
662
root -38.8735 17.6746 2.7956 1396.56 -88.0158 -1392.19
lowerback -0.766001 -4.48598 -3.7093
upperback -3.31112 -6.02042 2.85328
thorax -2.30119 -2.91567 5.06042
lowerneck -20.9177 -1.07095 -3.7867
upperneck 17.5602 -1.23494 4.05455
head 9.0002 -0.395197 1.84362
rclavicle -5.29761e-014 -7.15625e-015
rhumerus -54.0537 -4.17607 -68.0714
rradius 33.1475
rwrist 5.3666
rhand -11.9679 -10.3575
rfingers 7.12502
rthumb 14.0879 -39.86
lclavicle -5.29761e-014 -7.15625e-015
lhumerus -2.49087 -26.0732 88.5317
lradius 67.1957
lwrist 3.31063
lhand -11.7494 10.2754
lfingers 7.12502
lthumb 14.2985 39.7631
rfemur -46.1531 -5.02953 19.552
rtibia 52.5354
rfoot 1274.92 -182.668
rtoes 11.4931
lfemur 11.809 -7.76478 -23.978
ltibia 18.7956
lfoot 1429.37 -8.87549
ltoes -18.4519
663
root -39.0778 17.6445 2.7577 1405.66 -87.9644 -1401.1
lowerback -1.30858 -4.48003 -3.61446
upperback -3.48202 -6.00281 2.92021
thorax -2.17865 -2.91228 5.03811
lowerneck -20.7879 -1.16474 -3.86815
upperneck 17.7887 -1.35561 4.05931
head 9.06216 -0.460051 1.84387
rclavicle 3.52346e-014 -3.97569e-015
rhumerus -53.596 -4.34205 -68.6974
rradius 33.6107
rwrist 4.97192
rhand -12.0264 -10.5427
rfingers 7.12502
rthumb 14.0316 -40.0491
lclavicle 3.52346e-014 -3.97569e-015
lhumerus -4.27809 -26.6257 89.4983
lradius 65.9353
lwrist 3.50045
lhand -11.6662 10.5644
lfingers 7.12502
lthumb 14.3786 40.0464
rfemur -43.1667 -4.82413 19.7787
rtibia 50.0983
rfoot 1270.69 -182.078
rtoes 9.94325
lfemur 11.52 -7.5386 -23.309
ltibia 19.9925
lfoot 1430.1 -9.72054
ltoes -19.1916
664
root -39.2811 17.6157 2.71991 1414.39 -87.9216 -1409.64
lowerback -1.79889 -4.44696 -3.46604
upperback -3.6784 -5.95258 2.99263
thorax -2.12027 -2.8919 4.99918
lowerneck -20.6716 -1.26448 -3.97155
upperneck 18.0833 -1.47995 4.06058
head 9.14992 -0.529021 1.84663
rclavicle -6.70898e-015 -2.78299e-014
rhumerus -53.124 -4.50663 -69.3386
rradius 34.0632
rwrist 4.60186
rhand -12.0988 -10.7117
rfingers 7.12502
rthumb 13.9618 -40.2229
lclavicle -6.70898e-015 -2.78299e-014
lhumerus -6.13695 -27.1713 90.5071
lradius 64.5554
lwrist 3.72387
lhand -11.5488 10.8593
lfingers 7.12502
lthumb 14.4917 40.3332
rfemur -40.3642 -4.51432 20.0903
rtibia 47.6921
rfoot 1266.36 -181.633
rtoes 9.53482
lfemur 11.0079 -7.24296 -22.5486
ltibia 21.5227
lfoot 1431.1 -10.6479
ltoes -19.7601
665
root -39.4806 17.5899 2.68316 1423.41 -87.9257 -1418.49
lowerback -2.20659 -4.37479 -3.23024
upperback -3.88648 -5.85465 3.07606
thorax -2.13264 -2.84792 4.93306
lowerneck -20.5775 -1.36872 -4.09415
upperneck 18.4205 -1.60458 4.05451
head 9.25691 -0.600615 1.85032
rclavicle -5.725e-014 1.19271e-014
rhumerus -52.6104 -4.6673 -70.0042
rradius 34.5146
rwrist 4.26605
rhand -12.1826 -10.8753
rfingers 7.12502
rthumb 13.881 -40.3921
lclavicle -5.725e-014 1.19271e-014
lhumerus -8.03119 -27.6882 91.5471
lradius 63.0449
lwrist 3.94296
lhand -11.398 11.1505
lfingers 7.12502
lthumb 14.6371 40.6139
rfemur -37.7945 -4.07705 20.5216
rtibia 45.3489
rfoot 1262.35 -181.453
rtoes 10.1684
lfemur 10.2554 -6.84334 -21.668
ltibia 23.4074
lfoot 1432.48 -11.636
ltoes -20.0201
666
root -39.6735 17.5686 2.64743 1434.71 -88.0117 -1429.65
lowerback -2.51196 -4.24819 -2.85514
upperback -4.0925 -5.68917 3.18204
thorax -2.21732 -2.77216 4.82412
lowerneck -20.5243 -1.47381 -4.23697
upperneck 18.7825 -1.7246 4.05115
head 9.38036 -0.6712 1.85908
rclavicle 2.10712e-014 -3.97569e-015
rhumerus -52.0204 -4.8149 -70.7154
rradius 34.9696
rwrist 3.96524
rhand -12.271 -11.0834
rfingers 7.12502
rthumb 13.7958 -40.606
lclavicle 2.10712e-014 -3.97569e-015
lhumerus -9.929 -28.1541 92.6005
lradius 61.4068
lwrist 4.09362
lhand -11.2277 11.437
lfingers 7.12502
lthumb 14.8011 40.8884
rfemur -35.5177 -3.46675 21.1333
rtibia 43.149
rfoot 1259.02 -181.626
rtoes 11.7756
lfemur 9.23562 -6.29625 -20.5999
ltibia 25.6604
lfoot 1434.36 -12.6237
ltoes -19.8809
667
root -39.858 17.5532 2.61417 1449.59 -88.1268 -1444.45
lowerback -2.6985 -4.07053 -2.34248
upperback -4.27237 -5.45974 3.30317
thorax -2.35688 -2.66758 4.66484
lowerneck -20.5374 -1.57582 -4.3789
upperneck 19.1437 -1.8341 4.03319
head 9.51552 -0.737876 1.864
rclavicle 2.83268e-014 -2.38542e-015
rhumerus -51.3046 -4.94019 -71.4878
rradius 35.4262
rwrist 3.70213
rhand -12.4205 -11.229
rfingers 7.12502
rthumb 13.6517 -40.7613
lclavicle 2.83268e-014 -2.38542e-015
lhumerus -11.7898 -28.528 93.6382
lradius 59.6506
lwrist 4.10337
lhand -11.0714 11.6949
lfingers 7.12502
lthumb 14.9517 41.1352
rfemur -33.5472 -2.71935 21.8972
rtibia 41.1748
rfoot 1256.54 -182.039
rtoes 13.8283
lfemur 7.96775 -5.59768 -19.3909
ltibia 28.2764
lfoot 1436.76 -13.5177
ltoes -19.285
668
root -40.0317 17.5441 2.58212 1471.11 -88.1836 -1465.91
lowerback -2.75809 -3.83468 -1.66327
upperback -4.41933 -5.15547 3.45479
thorax -2.54848 -2.5303 4.45403
lowerneck -20.5959 -1.66818 -4.5117
upperneck 19.462 -1.92564 4.00354
head 9.64348 -0.796104 1.86531
rclavicle -8.44835e-015 3.97569e-014
rhumerus -50.4401 -5.01411 -72.3437
rradius 35.8971
rwrist 3.46164
rhand -12.6077 -11.3363
rfingers 7.12502
rthumb 13.4713 -40.8807
lclavicle -8.44835e-015 3.97569e-014
lhumerus -13.6089 -28.7693 94.6387
lradius 57.8041
lwrist 3.88934
lhand -10.9484 11.9068
lfingers 7.12502
lthumb 15.0702 41.3383
rfemur -31.9145 -1.7916 22.8564
rtibia 39.5306
rfoot 1254.82 -182.63
rtoes 15.5833
lfemur 6.4422 -4.7272 -17.9855
ltibia 31.2606
lfoot 1439.58 -14.2135
ltoes -18.1968
669
root -40.1954 17.5417 2.55267 1495.1 -88.0015 -1489.91
lowerback -2.68982 -3.56337 -0.867125
upperback -4.5051 -4.80288 3.61715
thorax -2.75554 -2.37356 4.19479
lowerneck -20.7199 -1.7466 -4.60716
upperneck 19.7105 -1.99538 3.9469
head 9.75759 -0.843017 1.8533
rclavicle -5.51627e-015 5.1684e-014
rhumerus -49.3944 -5.00544 -73.3042
rradius 36.401
rwrist 3.22306
rhand -12.7951 -11.4524
rfingers 7.12502
rthumb 13.2907 -41.0087
lclavicle -5.51627e-015 5.1684e-014
lhumerus -15.3634 -28.8219 95.5633
lradius 55.9017
lwrist 3.37636
lhand -10.8781 12.0506
lfingers 7.12502
lthumb 15.1379 41.4769
rfemur -30.555 -0.813183 23.93
rtibia 38.2724
rfoot 1253.66 -183.178
rtoes 16.8036
lfemur 4.71794 -3.73724 -16.5032
ltibia 34.5924
lfoot 1442.62 -14.6451
ltoes -16.8543
670
root -40.3501 17.5445 2.52584 1514.69 -87.535 -1509.57
lowerback -2.53203 -3.2766 0.0027533
upperback -4.52334 -4.42593 3.78007
thorax -2.94319 -2.20876 3.89551
lowerneck -20.8609 -1.80289 -4.68432
upperneck 19.8351 -2.0348 3.90025
head 9.8297 -0.871754 1.84495
rclavicle 2.13694e-015 -2.54444e-014
rhumerus -48.1614 -4.88619 -74.3741
rradius 36.954
rwrist 2.9664
rhand -12.9913 -11.5351
rfingers 7.12502
rthumb 13.1016 -41.1035
lclavicle 2.13694e-015 -2.54444e-014
lhumerus -17.0497 -28.6463 96.3828
lradius 53.975
lwrist 2.53092
lhand -10.864 12.1142
lfingers 7.12502
lthumb 15.1515 41.5395
rfemur -29.4304 0.123332 25.056
rtibia 37.4108
rfoot 1252.9 -183.596
rtoes 17.6054
lfemur 2.80736 -2.6834 -15.0215
ltibia 38.2624
lfoot 1445.55 -14.8506
ltoes -15.6636
671
root -40.497 17.5517 2.50192 1527.62 -86.881 -1522.64
lowerback -2.29551 -3.00087 0.895182
upperback -4.46514 -4.05801 3.93648
thorax -3.08957 -2.0506 3.5752
lowerneck -21.0409 -1.83637 -4.69924
upperneck 19.8465 -2.04485 3.81632
head 9.86628 -0.88463 1.81638
rclavicle -3.64273e-014 -7.95139e-016
rhumerus -46.7297 -4.59924 -75.5609
rradius 37.5548
rwrist 2.66671
rhand -13.1604 -11.6593
rfingers 7.12502
rthumb 12.9386 -41.2381
lclavicle -3.64273e-014 -7.95139e-016
lhumerus -18.6648 -28.1877 97.0675
lradius 52.0615
lwrist 1.36549
lhand -10.8938 12.1089
lfingers 7.12502
lthumb 15.1228 41.5364
rfemur -28.4585 0.924414 26.1716
rtibia 36.8881
rfoot 1252.38 -183.801
rtoes 17.9955
lfemur 0.740455 -1.63313 -13.6172
ltibia 42.2576
lfoot 1448.04 -14.9263
ltoes -14.7277
